<svg role="img" viewBox="0 0 24 24" xmlns="http://www.w3.org/2000/svg"><title>Gemma</title><path d="M12 2c-1.5 0-2.7 1.2-2.7 2.7 0 .9.4 1.7 1.1 2.2L12 8l1.6-1.1c.7-.5 1.1-1.3 1.1-2.2C14.7 3.2 13.5 2 12 2zM21.3 12c0-1.5-1.2-2.7-2.7-2.7-.9 0-1.7.4-2.2 1.1L15 12l1.4 1.6c.5.7 1.3 1.1 2.2 1.1 1.5 0 2.7-1.2 2.7-2.7zM12 21.3c1.5 0 2.7-1.2 2.7-2.7 0-.9-.4-1.7-1.1-2.2L12 15l-1.6 1.4c-.7.5-1.1 1.3-1.1 2.2 0 1.5 1.2 2.7 2.7 2.7zM2.7 14.7c.9 0 1.7-.4 2.2-1.1L8 12 6.4 10.4c-.5-.7-1.3-1.1-2.2-1.1C2.7 9.3 1.5 10.5 1.5 12c0 1.5 1.2 2.7 2.2 2.7z"/></svg>
