<svg role="img" viewBox="0 0 24 24" xmlns="http://www.w3.org/2000/svg"><title>Google Slides</title><path d="M19.58 2.095a.834.834 0 0 0-.591-.247H7.418a3.333 3.333 0 0 0-3.333 3.333V18.82a3.333 3.333 0 0 0 3.333 3.333h9.166a3.333 3.333 0 0 0 3.333-3.333V2.685a.833.833 0 0 0-.337-.59zM14.25 21.07H7.418a2.25 2.25 0 0 1-2.25-2.25V5.18a2.25 2.25 0 0 1 2.25-2.25h.582v3.066a1.667 1.667 0 0 0 1.667 1.667h4.583zM19 18.82a2.25 2.25 0 0 1-2.25 2.25h-1.417V8.083a.833.833 0 0 0-.834-.833H9.917a.583.583 0 0 1-.583-.584V2.93H19zm-2.833-1.25a.667.667 0 0 1-.667.667H8.333a.667.667 0 0 1-.666-.667V6.43a.667.667 0 0 1 .666-.667h7.167a.667.667 0 0 1 .667.667zm-5.5-7.5l-1.917 1.917a.5.5 0 0 0 .354.854h7.792a.5.5 0 0 0 .354-.854l-1.917-1.917a.5.5 0 0 0-.708 0l-.333.333V8.43a.5.5 0 0 0-1 0v1.967l-.333-.333a.5.5 0 0 0-.708 0l-.586.586z"/></svg>
