<svg role="img" viewBox="0 0 24 24" xmlns="http://www.w3.org/2000/svg"><title>Google Sheets</title><path fill="#0F9D58" d="M19.58 2.095a.833.833 0 0 0-.591-.247H7.418a3.333 3.333 0 0 0-3.333 3.333V18.82a3.333 3.333 0 0 0 3.333 3.333h9.166a3.333 3.333 0 0 0 3.333-3.333V2.685a.833.833 0 0 0-.337-.59zM14.25 21.07H7.418a2.25 2.25 0 0 1-2.25-2.25V5.18a2.25 2.25 0 0 1 2.25-2.25h.582v3.066a1.667 1.667 0 0 0 1.667 1.667h4.583zM19 18.82a2.25 2.25 0 0 1-2.25 2.25h-1.417V8.083a.833.833 0 0 0-.834-.833H9.917a.583.583 0 0 1-.583-.584V2.93H19zm-2.833-9.083v6.667a.667.667 0 0 1-.667.667H8.333a.667.667 0 0 1-.666-.667V7.333a.667.667 0 0 1 .666-.667h7.167a.667.667 0 0 1 .667.667zm-5.834 5.5h2.5v-1.5h-2.5zm0-2.5h2.5v-1.5h-2.5zm0-2.5h2.5v-1.5h-2.5z"/></svg>