<svg role="img" viewBox="0 0 24 24" xmlns="http://www.w3.org/2000/svg"><title>Ollama</title><path fill="#000000" d="M16.361 10.26a.894.894 0 0 0-.558.47l-.072.148.001.207c0 .193.004.217.059.353.076.193.152.312.291.448.24.238.51.3.872.205a.86.86 0 0 0 .517-.436.752.752 0 0 0 .08-.498c-.064-.453-.33-.782-.724-.897a1.06 1.06 0 0 0-.466 0zm-9.203.005c-.305.096-.533.32-.65.639a1.187 1.187 0 0 0-.06.52c.057.309.31.59.598.667.362.095.632.033.872-.205.14-.136.215-.255.291-.448.055-.136.059-.16.059-.353l.001-.207-.072-.148a.894.894 0 0 0-.565-.472 1.02 1.02 0 0 0-.474.007Zm4.184 2c-.131.071-.223.25-.195.383.031.143.157.288.353.407.105.063.112.072.117.136.004.038-.01.146-.029.243-.02.094-.036.194-.036.222.002.074.07.195.143.253.064.052.076.054.255.059.164.005.198.001.264-.03.169-.082.212-.234.15-.525-.052-.243-.042-.28.087-.355.137-.08.281-.219.324-.314a.365.365 0 0 0-.175-.48.394.394 0 0 0-.181-.033c-.126 0-.207.03-.355.124l-.085.053-.053-.032c-.219-.13-.259-.145-.391-.143a.396.396 0 0 0-.193.032zm.39-2.195c-.373.036-.475.05-.654.086-.291.06-.68.195-.951.328-.94.46-1.589 1.226-1.787 2.114-.04.176-.045.234-.045.53 0 .294.005.357.043.524.264 1.16 1.332 2.017 2.714 2.173.3.033 1.596.033 1.896 0 1.11-.125 2.064-.727 2.493-1.571.114-.226.169-.372.22-.602.039-.167.044-.23.044-.523 0-.297-.005-.355-.045-.531-.288-1.29-1.539-2.304-3.072-2.497a6.873 6.873 0 0 0-.855-.031zm.645.937a3.283 3.283 0 0 1 1.44.514c.223.148.537.458.671.662.166.251.26.508.303.82.02.143.01.251-.043.482-.08.345-.332.705-.672.957a3.115 3.115 0 0 1-.689.348c-.382.122-.632.144-1.525.138-.582-.006-.686-.01-.853-.042-.57-.107-1.022-.334-1.35-.68-.264-.28-.385-.535-.45-.946-.03-.192.025-.509.137-.776.136-.326.488-.73.836-.963.403-.269.934-.46 1.422-.512.187-.02.586-.02.773-.002zm-5.503-11a1.653 1.653 0 0 0-.683.298C5.617.74 5.173 1.666 4.985 2.819c-.07.436-.119 1.04-.119 1.503 0 .544.064 1.24.155 1.721.02.107.031.202.023.208a8.12 8.12 0 0 1-.187.152 5.324 5.324 0 0 0-.949 1.02 5.49 5.49 0 0 0-.94 2.339 6.625 6.625 0 0 0-.023 1.357c.027.503.137 1.058.328 1.616.205.605.502 1.17.85 1.643.353.479.794.93 1.27 1.302.482.376 1.015.7 1.561.94.55.241 1.115.412 1.643.487.526.075 1.015.063 1.422.001a4.27 4.27 0 0 0 1.094-.314 5.66 5.66 0 0 0 1.561-.94 6.32 6.32 0 0 0 1.268-1.302c.348-.473.647-1.038.852-1.643.19-.558.301-1.113.328-1.616a6.625 6.625 0 0 0-.024-1.357 5.49 5.49 0 0 0-.94-2.339 5.324 5.324 0 0 0-.948-1.02 8.12 8.12 0 0 1-.187-.152c-.008-.006.002-.1.023-.208.09-.481.155-1.177.155-1.721 0-.464-.05-1.067-.12-1.503-.187-1.153-.631-2.079-1.204-2.514a1.653 1.653 0 0 0-.683-.298 1.51 1.51 0 0 0-.408-.016c-.234.018-.469.07-.687.155a2.43 2.43 0 0 0-.518.272 4.965 4.965 0 0 0-.388.302 2.92 2.92 0 0 1-.225.181 1.17 1.17 0 0 1-.166 0 2.92 2.92 0 0 1-.225-.18 4.965 4.965 0 0 0-.388-.303 2.43 2.43 0 0 0-.518-.272 2.155 2.155 0 0 0-.687-.155 1.51 1.51 0 0 0-.408.016zm.314 1.357c.171.105.342.232.508.367.218.176.482.387.78.46.146.037.31.054.484.054.175 0 .338-.017.484-.054.298-.073.562-.284.78-.46.166-.135.337-.262.508-.367.157-.097.305-.155.413-.166.04-.005.077 0 .107.005.058.012.135.04.218.108.183.147.413.435.534.918.115.453.18 1.069.18 1.673 0 .3-.018.596-.05.86-.033.272-.005.546.078.788.082.244.221.456.402.62.142.13.317.249.488.367.295.205.59.41.835.7.226.267.397.595.527.96.13.367.214.766.214 1.166 0 .4-.085.79-.214 1.144a4.3 4.3 0 0 1-.527.96c-.245.29-.54.495-.835.7-.31.184-.616.39-.879.65a4.05 4.05 0 0 1-.495.426c-.302.222-.628.39-.973.485a3.83 3.83 0 0 1-1.005.13c-.34 0-.677-.043-1.005-.13a3.42 3.42 0 0 1-.973-.485 4.05 4.05 0 0 1-.495-.426 4.55 4.55 0 0 0-.88-.65 4.21 4.21 0 0 1-.834-.7 4.3 4.3 0 0 1-.527-.96 3.42 3.42 0 0 1-.214-1.144c0-.4.084-.799.214-1.166.13-.365.3-.693.527-.96.245-.29.539-.495.834-.7.172-.118.347-.237.489-.367.18-.164.32-.376.402-.62.083-.242.111-.516.078-.788a6.07 6.07 0 0 1-.05-.86c0-.604.065-1.22.18-1.673.12-.483.351-.771.534-.918a.55.55 0 0 1 .218-.108c.03-.005.067-.01.107-.005.108.011.256.07.413.166zm.92 2.355a.5.5 0 0 0-.165.058 3.07 3.07 0 0 0-.84.638c-.243.255-.444.55-.587.876a3.6 3.6 0 0 0-.246 1.053c-.013.18-.01.36.005.541.014.18.04.36.083.541.061.27.156.535.282.787.126.252.282.488.476.7.193.21.42.395.673.539.252.144.528.247.812.305.16.033.323.052.484.06.16.008.322 0 .484-.018.27-.03.535-.097.787-.21.252-.112.488-.267.7-.46.21-.193.392-.42.535-.672.144-.252.247-.528.305-.812.034-.16.052-.323.06-.484.008-.16 0-.322-.018-.484a3.6 3.6 0 0 0-.21-.787 3.32 3.32 0 0 0-.46-.7 3.07 3.07 0 0 0-.672-.535 2.9 2.9 0 0 0-.812-.305 2.59 2.59 0 0 0-.484-.06 2.7 2.7 0 0 0-.484.018c-.16.018-.32.05-.484.108zm-2.196 2.8a.5.5 0 0 0-.116.084 1.97 1.97 0 0 0-.327.36 2.4 2.4 0 0 0-.243.444 2.2 2.2 0 0 0-.142.484 2.6 2.6 0 0 0-.03.252 2.4 2.4 0 0 0 .03.484c.027.16.075.323.142.484.067.16.152.31.243.444.092.135.198.255.327.36a1.7 1.7 0 0 0 .395.272c.143.072.298.12.453.143a1.95 1.95 0 0 0 .97-.143c.143-.072.276-.16.395-.272.13-.105.235-.225.327-.36.092-.135.176-.284.243-.444.067-.16.115-.323.142-.484.027-.16.04-.323.03-.484a2.6 2.6 0 0 0-.03-.252 2.2 2.2 0 0 0-.142-.484 2.4 2.4 0 0 0-.243-.444 1.97 1.97 0 0 0-.327-.36.5.5 0 0 0-.116-.084.5.5 0 0 0-.12-.05 1.32 1.32 0 0 0-.234-.06 1.55 1.55 0 0 0-.484 0 1.32 1.32 0 0 0-.234.06.5.5 0 0 0-.12.05zm9.198 0a.5.5 0 0 0-.116.084 1.97 1.97 0 0 0-.327.36 2.4 2.4 0 0 0-.243.444 2.2 2.2 0 0 0-.142.484 2.6 2.6 0 0 0-.03.252 2.4 2.4 0 0 0 .03.484c.027.16.075.323.142.484.067.16.152.31.243.444.092.135.198.255.327.36a1.7 1.7 0 0 0 .395.272c.143.072.298.12.453.143a1.95 1.95 0 0 0 .97-.143c.143-.072.276-.16.395-.272.13-.105.235-.225.327-.36.092-.135.176-.284.243-.444.067-.16.115-.323.142-.484.027-.16.04-.323.03-.484a2.6 2.6 0 0 0-.03-.252 2.2 2.2 0 0 0-.142-.484 2.4 2.4 0 0 0-.243-.444 1.97 1.97 0 0 0-.327-.36.5.5 0 0 0-.116-.084.5.5 0 0 0-.12-.05 1.32 1.32 0 0 0-.234-.06 1.55 1.55 0 0 0-.484 0 1.32 1.32 0 0 0-.234.06.5.5 0 0 0-.12.05z"/></svg>